<mxfile host="app.diagrams.net" modified="2022-11-25T07:08:53.524Z" agent="5.0 (Windows NT 10.0; Win64; x64) AppleWebKit/537.36 (KHTML, like Gecko) Chrome/107.0.0.0 Safari/537.36" etag="1KtcVbOaya9ouAfMz8jk" version="20.6.0" type="github">
  <diagram id="fwG7JPQ1PlgV7cjP7vGq" name="第 1 页">
    <mxGraphModel dx="1185" dy="597" grid="1" gridSize="10" guides="1" tooltips="1" connect="1" arrows="1" fold="1" page="1" pageScale="1" pageWidth="827" pageHeight="1169" math="0" shadow="0">
      <root>
        <mxCell id="0" />
        <mxCell id="1" parent="0" />
        <mxCell id="s-cP2JgDxqyjipvLWrZl-4" value="DecorateController" style="shape=umlLifeline;perimeter=lifelinePerimeter;whiteSpace=wrap;html=1;container=1;collapsible=0;recursiveResize=0;outlineConnect=0;" parent="1" vertex="1">
          <mxGeometry x="164" y="250" width="250" height="550" as="geometry" />
        </mxCell>
        <mxCell id="s-cP2JgDxqyjipvLWrZl-16" style="edgeStyle=orthogonalEdgeStyle;rounded=0;orthogonalLoop=1;jettySize=auto;html=1;exitX=1;exitY=0.5;exitDx=0;exitDy=0;entryX=1;entryY=0.25;entryDx=0;entryDy=0;" parent="s-cP2JgDxqyjipvLWrZl-4" source="s-cP2JgDxqyjipvLWrZl-7" target="s-cP2JgDxqyjipvLWrZl-8" edge="1">
          <mxGeometry relative="1" as="geometry" />
        </mxCell>
        <mxCell id="s-cP2JgDxqyjipvLWrZl-21" value="j进行 request 的 VO 转换" style="edgeLabel;html=1;align=center;verticalAlign=middle;resizable=0;points=[];" parent="s-cP2JgDxqyjipvLWrZl-16" vertex="1" connectable="0">
          <mxGeometry x="0.3032" y="3" relative="1" as="geometry">
            <mxPoint x="3" y="-21" as="offset" />
          </mxGeometry>
        </mxCell>
        <mxCell id="s-cP2JgDxqyjipvLWrZl-7" value="queryByCondition(request)" style="rounded=1;whiteSpace=wrap;html=1;" parent="s-cP2JgDxqyjipvLWrZl-4" vertex="1">
          <mxGeometry x="50" y="80" width="150" height="60" as="geometry" />
        </mxCell>
        <mxCell id="s-cP2JgDxqyjipvLWrZl-8" value="origin(request)" style="rounded=1;whiteSpace=wrap;html=1;" parent="s-cP2JgDxqyjipvLWrZl-4" vertex="1">
          <mxGeometry x="50" y="210" width="150" height="60" as="geometry" />
        </mxCell>
        <mxCell id="s-cP2JgDxqyjipvLWrZl-9" style="edgeStyle=orthogonalEdgeStyle;rounded=0;orthogonalLoop=1;jettySize=auto;html=1;entryX=0;entryY=0.5;entryDx=0;entryDy=0;" parent="1" source="s-cP2JgDxqyjipvLWrZl-6" target="s-cP2JgDxqyjipvLWrZl-7" edge="1">
          <mxGeometry relative="1" as="geometry" />
        </mxCell>
        <mxCell id="s-cP2JgDxqyjipvLWrZl-6" value="Client" style="rounded=1;whiteSpace=wrap;html=1;" parent="1" vertex="1">
          <mxGeometry x="50" y="220" width="50" height="280" as="geometry" />
        </mxCell>
        <mxCell id="s-cP2JgDxqyjipvLWrZl-12" value="GroupingServiceImpl" style="shape=umlLifeline;perimeter=lifelinePerimeter;whiteSpace=wrap;html=1;container=1;collapsible=0;recursiveResize=0;outlineConnect=0;" parent="1" vertex="1">
          <mxGeometry x="440" y="250" width="300" height="550" as="geometry" />
        </mxCell>
        <mxCell id="s-cP2JgDxqyjipvLWrZl-23" style="edgeStyle=orthogonalEdgeStyle;rounded=0;orthogonalLoop=1;jettySize=auto;html=1;exitX=0.241;exitY=1.011;exitDx=0;exitDy=0;entryX=0.222;entryY=0.02;entryDx=0;entryDy=0;entryPerimeter=0;exitPerimeter=0;" parent="s-cP2JgDxqyjipvLWrZl-12" source="s-cP2JgDxqyjipvLWrZl-15" target="s-cP2JgDxqyjipvLWrZl-22" edge="1">
          <mxGeometry relative="1" as="geometry" />
        </mxCell>
        <mxCell id="s-cP2JgDxqyjipvLWrZl-15" value="querySpuListByGrouping(requestVO)" style="rounded=1;whiteSpace=wrap;html=1;" parent="s-cP2JgDxqyjipvLWrZl-12" vertex="1">
          <mxGeometry x="40" y="220" width="220" height="60" as="geometry" />
        </mxCell>
        <mxCell id="s-cP2JgDxqyjipvLWrZl-24" style="edgeStyle=orthogonalEdgeStyle;rounded=0;orthogonalLoop=1;jettySize=auto;html=1;exitX=0.75;exitY=0;exitDx=0;exitDy=0;" parent="s-cP2JgDxqyjipvLWrZl-12" source="s-cP2JgDxqyjipvLWrZl-22" edge="1">
          <mxGeometry relative="1" as="geometry">
            <mxPoint x="201" y="280" as="targetPoint" />
          </mxGeometry>
        </mxCell>
        <mxCell id="s-cP2JgDxqyjipvLWrZl-26" style="edgeStyle=orthogonalEdgeStyle;rounded=0;orthogonalLoop=1;jettySize=auto;html=1;entryX=0.25;entryY=0;entryDx=0;entryDy=0;" parent="s-cP2JgDxqyjipvLWrZl-12" target="s-cP2JgDxqyjipvLWrZl-25" edge="1">
          <mxGeometry relative="1" as="geometry">
            <mxPoint x="95" y="390" as="sourcePoint" />
          </mxGeometry>
        </mxCell>
        <mxCell id="s-cP2JgDxqyjipvLWrZl-22" value="doQuery(requestVO, response)" style="rounded=1;whiteSpace=wrap;html=1;" parent="s-cP2JgDxqyjipvLWrZl-12" vertex="1">
          <mxGeometry x="47.5" y="340" width="205" height="50" as="geometry" />
        </mxCell>
        <mxCell id="s-cP2JgDxqyjipvLWrZl-27" style="edgeStyle=orthogonalEdgeStyle;rounded=0;orthogonalLoop=1;jettySize=auto;html=1;exitX=0.735;exitY=-0.02;exitDx=0;exitDy=0;entryX=0.75;entryY=1;entryDx=0;entryDy=0;exitPerimeter=0;" parent="s-cP2JgDxqyjipvLWrZl-12" source="s-cP2JgDxqyjipvLWrZl-25" target="s-cP2JgDxqyjipvLWrZl-22" edge="1">
          <mxGeometry relative="1" as="geometry" />
        </mxCell>
        <mxCell id="s-cP2JgDxqyjipvLWrZl-25" value="querySpuListByCondition(requestVO)" style="rounded=1;whiteSpace=wrap;html=1;" parent="s-cP2JgDxqyjipvLWrZl-12" vertex="1">
          <mxGeometry x="40" y="440" width="220" height="80" as="geometry" />
        </mxCell>
        <mxCell id="s-cP2JgDxqyjipvLWrZl-19" style="edgeStyle=orthogonalEdgeStyle;rounded=0;orthogonalLoop=1;jettySize=auto;html=1;exitX=1.007;exitY=0.417;exitDx=0;exitDy=0;entryX=0;entryY=0.25;entryDx=0;entryDy=0;exitPerimeter=0;" parent="1" source="s-cP2JgDxqyjipvLWrZl-8" target="s-cP2JgDxqyjipvLWrZl-15" edge="1">
          <mxGeometry relative="1" as="geometry">
            <mxPoint x="450" y="490" as="targetPoint" />
          </mxGeometry>
        </mxCell>
        <mxCell id="s-cP2JgDxqyjipvLWrZl-20" style="edgeStyle=orthogonalEdgeStyle;rounded=0;orthogonalLoop=1;jettySize=auto;html=1;entryX=1;entryY=0.75;entryDx=0;entryDy=0;exitX=-0.005;exitY=0.583;exitDx=0;exitDy=0;exitPerimeter=0;" parent="1" source="s-cP2JgDxqyjipvLWrZl-15" target="s-cP2JgDxqyjipvLWrZl-8" edge="1">
          <mxGeometry relative="1" as="geometry">
            <mxPoint x="450" y="505" as="sourcePoint" />
          </mxGeometry>
        </mxCell>
        <mxCell id="s-cP2JgDxqyjipvLWrZl-28" value="SpuSearchLiteApi" style="shape=umlLifeline;perimeter=lifelinePerimeter;whiteSpace=wrap;html=1;container=1;collapsible=0;recursiveResize=0;outlineConnect=0;" parent="1" vertex="1">
          <mxGeometry x="790" y="250" width="300" height="550" as="geometry" />
        </mxCell>
        <mxCell id="s-cP2JgDxqyjipvLWrZl-30" value="searchSpu(requestVO)" style="rounded=1;whiteSpace=wrap;html=1;" parent="s-cP2JgDxqyjipvLWrZl-28" vertex="1">
          <mxGeometry x="37" y="390" width="220" height="120" as="geometry" />
        </mxCell>
        <mxCell id="s-cP2JgDxqyjipvLWrZl-36" style="edgeStyle=orthogonalEdgeStyle;rounded=0;orthogonalLoop=1;jettySize=auto;html=1;exitX=1;exitY=0.25;exitDx=0;exitDy=0;entryX=-0.009;entryY=0.583;entryDx=0;entryDy=0;entryPerimeter=0;" parent="1" source="s-cP2JgDxqyjipvLWrZl-25" target="s-cP2JgDxqyjipvLWrZl-30" edge="1">
          <mxGeometry relative="1" as="geometry" />
        </mxCell>
        <mxCell id="s-cP2JgDxqyjipvLWrZl-37" style="edgeStyle=orthogonalEdgeStyle;rounded=0;orthogonalLoop=1;jettySize=auto;html=1;entryX=1;entryY=0.75;entryDx=0;entryDy=0;" parent="1" target="s-cP2JgDxqyjipvLWrZl-25" edge="1">
          <mxGeometry relative="1" as="geometry">
            <mxPoint x="829" y="750" as="sourcePoint" />
          </mxGeometry>
        </mxCell>
      </root>
    </mxGraphModel>
  </diagram>
</mxfile>
